<svg width="38" height="42" viewBox="0 0 38 42" fill="none" xmlns="http://www.w3.org/2000/svg">
<path d="M33.3333 37.5H4.16667V14.5833H33.3333M27.0833 0V4.16667H10.4167V0H6.25V4.16667H4.16667C1.85417 4.16667 0 6.02083 0 8.33333V37.5C0 38.6051 0.438987 39.6649 1.22039 40.4463C2.00179 41.2277 3.0616 41.6667 4.16667 41.6667H33.3333C34.4384 41.6667 35.4982 41.2277 36.2796 40.4463C37.061 39.6649 37.5 38.6051 37.5 37.5V8.33333C37.5 7.22826 37.061 6.16846 36.2796 5.38705C35.4982 4.60565 34.4384 4.16667 33.3333 4.16667H31.25V0M29.1667 22.9167H18.75V33.3333H29.1667V22.9167Z" fill="url(#paint0_linear_53_21)"/>
<defs>
<linearGradient id="paint0_linear_53_21" x1="18.75" y1="0" x2="18.75" y2="41.6667" gradientUnits="userSpaceOnUse">
<stop stop-color="#0A6CCE"/>
<stop offset="1" stop-color="#35D1E5"/>
</linearGradient>
</defs>
</svg>
