<svg width="50" height="50" viewBox="0 0 50 50" fill="none" xmlns="http://www.w3.org/2000/svg">
<path d="M35.005 0H50V35.8937H48.2607V26.8667H47.2374V35.8937H46.5188V30.6417H45.498V35.8917H44.7795V27.475H43.7562V35.8917H43.0401V29.125H42.0144V35.8958H41.1967V30.6437H40.2775V35.8937H39.4574V27.9958H38.4341V35.8958H37.718V26.8687H36.6923V35.8958H34.9554C35.005 23.9583 35.005 12.0271 35.005 0.00208333V0ZM17.5545 15.8833H32.4455V35.8937H30.8102V31.2479H29.7844V35.8937H29.0709V28.6021H28.0451V35.8937H27.329V28.6021H26.3057V35.8937H25.4881V30.1229H24.5664V35.8937H23.7463V30.1229H22.723V35.8937H22.0069V29.6458H20.9812V35.8958H20.2651V27.9937H19.2443V35.8958H17.5025C17.552 30.2979 17.552 21.4 17.552 15.8854L17.5545 15.8833ZM13.3053 26.8667H12.2795V35.8042H11.5659V31.6833H10.5401V35.8083H9.7225V30.0333H8.80079V35.8042H7.98315V27.3875H6.95738V35.8042H6.24381V31.1625H5.21804V35.8062H4.50198V29.0354H3.47621V35.8062H2.76016V27.9937H1.73935V35.8062H0V24.0417H14.8935V35.8042H13.2582C13.3077 32.8979 13.3077 29.9021 13.3077 26.8646L13.3053 26.8667ZM28.0946 38.325H29.0139V50H28.0946V38.325ZM38.5332 38.325H39.3508V49.825H38.5332V38.325ZM20.109 49.5667H19.2914V38.3208H20.109V49.5667ZM37.6115 38.3229V49.5667H36.7939V38.3208H37.6115V38.3229ZM26.3528 38.3229H27.1705V49.2187H26.3528V38.3229ZM42.0664 38.3229H42.884V49.2187H42.0664V38.3229ZM17.552 38.3229H18.3697V48.525H17.552V38.3208V38.3229ZM44.6234 48.4375H43.8057V38.3208H44.6234V48.4375ZM21.9029 48.35H21.0852V38.2812H21.9029V48.35ZM32.443 48.2625H31.6254V38.2833H32.443V48.2625ZM23.7438 47.4833H22.8221V38.2812H23.7438V47.4833ZM48.1541 47.9167H47.3365V38.2812H48.1541V47.9167ZM25.3816 47.4833H24.5639V38.2812H25.3816V47.4833ZM35.0025 38.3229H35.8226V47.525H35.005L35.0025 38.3229ZM10.5922 46.7875V38.2833H11.5114V46.7896L10.5922 46.7875ZM40.275 46.7V38.2833H41.1943V46.7021L40.275 46.7ZM7.16056 38.325H7.9782V47.1792H7.16056V38.3208V38.325ZM49.0733 38.325H49.995V46.6583H49.0733V38.3208V38.325ZM12.3885 46.6979V38.2812H13.2061V46.7L12.3885 46.6979ZM8.8553 46.6104V38.2812H9.67294V46.6146H8.8553V46.6104ZM46.4222 46.6104H45.6021V38.2812H46.4197V46.6146L46.4222 46.6104ZM4.4004 46.5271H3.58276V38.3667H4.4004V46.5271ZM2.66353 46.0479H1.74182V38.3208H2.66353V46.0479ZM29.8365 38.3208H30.7582V45.8729H29.8365V38.3208ZM15.0446 46.2229H14.227V38.3208H15.0446V46.2229ZM0.156095 38.3187H0.973736V45.7854H0.156095V38.3187ZM5.42864 38.3187H6.24628V45.7854H5.42616L5.42864 38.3187Z" fill="url(#paint0_linear_53_19)"/>
<defs>
<linearGradient id="paint0_linear_53_19" x1="25" y1="0" x2="25" y2="50" gradientUnits="userSpaceOnUse">
<stop stop-color="#0A6CCE"/>
<stop offset="1" stop-color="#35D1E5"/>
</linearGradient>
</defs>
</svg>
